Coordinates
version=1
nRows=8
nColumns=63
inDegrees=yes

Units are S.I. units (second, meters, Newtons, ...)
If the header above contains a line with 'inDegrees', this indicates whether rotational values are in degrees (yes) or radians (no).

endheader
time	pelvis_tilt	pelvis_list	pelvis_rotation	pelvis_tx	pelvis_ty	pelvis_tz	hip_flexion_r	hip_adduction_r	hip_rotation_r	knee_angle_r	knee_angle_r_beta	ankle_angle_r	subtalar_angle_r	mtp_angle_r	hip_flexion_l	hip_adduction_l	hip_rotation_l	knee_angle_l	knee_angle_l_beta	ankle_angle_l	subtalar_angle_l	mtp_angle_l	L5_S1_Flex_Ext	L5_S1_Lat_Bending	L5_S1_axial_rotation	L4_L5_Flex_Ext	L4_L5_Lat_Bending	L4_L5_axial_rotation	L3_L4_Flex_Ext	L3_L4_Lat_Bending	L3_L4_axial_rotation	L2_L3_Flex_Ext	L2_L3_Lat_Bending	L2_L3_axial_rotation	L1_L2_Flex_Ext	L1_L2_Lat_Bending	L1_L2_axial_rotation	L1_T12_Flex_Ext	L1_T12_Lat_Bending	L1_T12_axial_rotation	Abs_r3	Abs_r2	Abs_r1	Abs_t1	Abs_t2	neck_flexion	neck_bending	neck_rotation	arm_flex_r	arm_add_r	arm_rot_r	elbow_flex_r	pro_sup_r	wrist_flex_r	wrist_dev_r	arm_flex_l	arm_add_l	arm_rot_l	elbow_flex_l	pro_sup_l	wrist_flex_l	wrist_dev_l
      3.29411765	      3.79475133	      0.83602272	     83.70272449	      0.49084899	      0.60989190	      0.70063291	     -1.72018344	      1.08254461	      2.05739496	      4.97561790	      0.08684091	     18.66295769	      3.72959949	      0.00000000	      0.60780212	     -1.84710801	    -10.44798619	     12.42398176	      0.21683939	     21.50244607	     -4.71359483	      0.00000000	     -0.08641054	      0.00510051	      0.30253525	     -0.16047302	      0.00678368	      0.32144371	     -0.14196388	      0.01240139	      0.32144371	     -0.09875861	      0.01240139	      0.26471835	     -0.08024083	      0.01040097	      0.24580989	     -0.04937498	      0.00790069	      0.22690144	     -0.61722186	      0.05769802	      1.68261031	      0.00000000	      0.00000000	     17.19472056	     -3.74143982	     -1.23973067	     25.25227791	     -8.78474671	     88.74095268	     47.46548954	     85.30249050	     10.29009092	     -3.42989432	     17.63004753	    -14.50846712	     73.90226344	     56.69205390	     88.56874792	     11.85057891	     23.81766585
      3.31372549	      3.78455807	      0.84137407	     83.69119973	      0.49077387	      0.60968298	      0.70063319	     -2.04506969	      1.16701608	      4.48611675	      4.26075896	      0.07436427	     17.84530364	      0.47809725	      0.00000000	      0.42074202	     -1.86093197	    -11.14536587	     12.14305750	      0.21193633	     21.51034873	     -3.68720536	      0.00000000	     -0.08750456	      0.00552640	      0.29050655	     -0.16250473	      0.00735011	      0.30866321	     -0.14376125	      0.01343688	      0.30866321	     -0.10000897	      0.01343688	      0.25419323	     -0.08125674	      0.01126943	      0.23603658	     -0.05000011	      0.00856039	      0.21787992	     -0.62503635	      0.06251570	      1.61571030	      0.00000000	      0.00000000	     16.66868214	     -3.74423135	     -1.28154727	     24.55606591	     -8.94208356	     87.40631812	     47.62199097	     83.26442148	     10.83349358	     -2.62078498	     17.47043326	    -14.54610048	     73.60378518	     56.65554620	     88.57471977	     13.26547793	     24.22540605
      3.33333333	      3.75524568	      0.83399938	     83.75388061	      0.49058020	      0.60944049	      0.70077786	     -2.17504751	      1.10532255	      4.02296707	      3.93432775	      0.06866697	     17.94880658	      1.26635443	      0.00000000	      0.26158037	     -1.83250779	    -11.65284392	     11.84661431	      0.20676242	     21.42298911	     -2.89654488	      0.00000000	     -0.09174199	      0.00356293	      0.26719470	     -0.17037404	      0.00473870	      0.28389437	     -0.15072291	      0.00866292	      0.28389437	     -0.10485192	      0.00866292	      0.23379537	     -0.08519161	      0.00726553	      0.21709570	     -0.05242137	      0.00551898	      0.20039603	     -0.65530383	      0.04030462	      1.48605678	      0.00000000	      0.00000000	     16.44126685	     -3.69537700	     -1.29847601	     24.25687752	     -8.99421624	     87.21278208	     47.58669802	     79.45999078	     10.96134440	     -2.17830586	     17.31787349	    -14.60231809	     73.22167139	     56.73638566	     88.57513099	     14.49153757	     24.83101182
      3.35294118	      3.72026853	      0.82908142	     83.59061128	      0.49081042	      0.60923319	      0.70069322	     -2.46210071	      1.14165483	      6.81654084	      3.28172993	      0.05727699	     17.04724188	     -2.34914547	      0.00000000	      0.05976311	     -1.86962136	    -12.99945972	     11.60232321	      0.20249874	     21.47177618	     -1.22012350	      0.00000000	     -0.08981363	      0.00150696	      0.31122726	     -0.16679289	      0.00200425	      0.33067897	     -0.14755481	      0.00366401	      0.33067897	     -0.10264800	      0.00366401	      0.27232385	     -0.08340094	      0.00307298	      0.25287215	     -0.05131951	      0.00233427	      0.23342045	     -0.64152977	      0.01704698	      1.73095266	      0.00000000	      0.00000000	     16.39386501	     -3.50798651	     -1.07484262	     23.93504056	     -9.12609715	     86.91664261	     47.77199370	     76.64578094	     10.98661105	     -1.20867717	     17.34467999	    -14.67522586	     73.33132303	     56.88299136	     88.59290547	     14.82472005	     25.05591587
      3.37254902	      3.71285365	      0.81043782	     83.65446260	      0.49068386	      0.60907926	      0.70064684	     -2.54022463	      1.11676595	      6.56126397	      3.07971305	      0.05375113	     17.08745445	     -1.96259394	      0.00000000	     -0.05463222	     -1.88922642	    -13.61704018	     11.41209457	      0.19917862	     21.40246513	     -0.29011445	      0.00000000	     -0.09065467	      0.00420476	      0.33537116	     -0.16835479	      0.00559233	      0.35633185	     -0.14893656	      0.01022345	      0.35633185	     -0.10360922	      0.01022345	      0.29344976	     -0.08418193	      0.00857435	      0.27248906	     -0.05180008	      0.00651317	      0.25152837	     -0.64753724	      0.04756508	      1.86523376	      0.00000000	      0.00000000	     16.62305384	     -3.20632827	     -0.52159997	     23.62648465	     -9.32835144	     86.40050960	     48.04338773	     74.91932786	     11.13836317	     -0.16140345	     17.41761040	    -14.64163820	     73.31396313	     57.01443651	     88.64773773	     14.98991705	     25.45066512
      3.39215686	      3.67893563	      0.72559633	     83.64324612	      0.49065085	      0.60897385	      0.70048602	     -2.47813401	      1.05980852	      5.65659747	      3.02610072	      0.05281542	     17.34879539	     -0.64635825	      0.00000000	     -0.07014301	     -1.86906306	    -14.02440187	     11.29398536	      0.19711723	     21.25836158	      0.22037793	      0.00000000	     -0.08261068	     -0.00007714	      0.44653172	     -0.15341629	     -0.00010260	      0.47443996	     -0.13572108	     -0.00018756	      0.47443996	     -0.09441574	     -0.00018756	      0.39071526	     -0.07671228	     -0.00015731	      0.36280703	     -0.04720374	     -0.00011949	      0.33489879	     -0.59007982	     -0.00087265	      2.48347549	      0.00000000	      0.00000000	     16.99353403	     -3.05735908	     -0.58120851	     23.04791157	     -9.69988398	     85.21329743	     48.28102329	     73.05929616	     11.98983954	      0.71756808	     17.95364198	    -14.50146361	     74.13918931	     57.14125548	     88.67064632	     14.55617029	     25.82453404
      3.41176471	      3.74004613	      0.56871282	     83.68976220	      0.49055356	      0.60881886	      0.70018555	     -2.46669248	      1.14642699	      5.88910807	      2.73093398	      0.04766379	     17.09922868	     -1.07100149	      0.00000000	     -0.01251546	     -1.95759801	    -14.34576983	     11.16523572	      0.19487013	     21.18780753	      0.68772416	      0.00000000	     -0.06806902	      0.00951294	      0.53910727	     -0.12641097	      0.01265222	      0.57280147	     -0.11183059	      0.02312977	      0.57280147	     -0.07779608	      0.02312977	      0.47171886	     -0.06320889	      0.01939880	      0.43802466	     -0.03889464	      0.01473555	      0.40433045	     -0.48621017	      0.10761233	      2.99835289	      0.00000000	      0.00000000	     17.55402733	     -2.89933925	     -0.26636110	     22.49041437	    -10.14260292	     83.79253237	     48.74184096	     73.60506765	     12.56408794	      1.43333154	     18.47271938	    -14.27500375	     74.86167364	     57.11619320	     88.67950296	     14.10541513	     25.89577626
      3.43137255	      3.73286072	      0.40800747	     83.43585426	      0.49095987	      0.60858111	      0.70028658	     -2.31841120	      1.19962533	      7.31581537	      2.61759037	      0.04568557	     16.69499436	     -2.93957374	      0.00000000	      0.07355445	     -2.01724144	    -15.21390957	     11.09140276	      0.19358150	     21.29282187	      1.52901656	      0.00000000	     -0.06493276	      0.00329774	      0.76613026	     -0.12058663	      0.00438600	      0.81401340	     -0.10667804	      0.00801813	      0.81401340	     -0.07421165	      0.00801813	      0.67036398	     -0.06029656	      0.00672476	      0.62248084	     -0.03710258	      0.00510820	      0.57459770	     -0.46380823	      0.03730473	      4.26098667	      0.00000000	      0.00000000	     18.41638025	     -3.18357349	     -0.85224743	     21.17933704	    -10.76787148	     80.06597460	     49.49712200	     75.89673684	     14.11035999	      3.17173115	     19.86004239	    -13.98603247	     77.16197442	     57.10174984	     88.66151357	     13.12349708	     25.36257628
